<?xml version="1.0" encoding="UTF-8"?>
<svg id="Laag_2" data-name="Laag 2" xmlns="http://www.w3.org/2000/svg" viewBox="0 0 573 91.16">
  <defs>
    <style>
      .cls-1 {
        fill: #fff;
      }

      .cls-2 {
        fill: #873eff;
      }
    </style>
  </defs>
  <g id="Laag_1-2" data-name="Laag 1">
    <g>
      <path class="cls-1" d="M8.07,89.86V13.93H0V0h46.49c9.46,0,16.62,2.28,21.49,6.84,4.86,4.56,7.29,11.44,7.29,20.64s-2.41,15.39-7.23,19.86c-4.82,4.47-11.87,6.71-21.16,6.71h-19.66v35.81H8.07ZM27.22,41.15h17.97c3.56,0,6.21-.91,7.94-2.73,1.74-1.82,2.6-4.6,2.6-8.33v-5.21c0-3.73-.87-6.49-2.6-8.27-1.74-1.78-4.39-2.67-7.94-2.67h-17.97v27.22Z"/>
      <path class="cls-1" d="M86.99,89.86v-56.13h-7.42v-13.41h26.05v69.54h-18.62ZM86.08,15.11V0h20.05v15.11h-20.05Z"/>
      <path class="cls-1" d="M162.39,46.23c0-4.34-.85-7.55-2.54-9.64-1.69-2.08-4.28-3.13-7.75-3.13s-6.06,1.04-7.75,3.13c-1.69,2.08-2.54,5.3-2.54,9.64v43.63h-18.62v-56.13h-7.16v-13.41h23.31v13.93h4.3c1.04-5.21,3-9.05,5.86-11.52,2.87-2.47,6.68-3.71,11.46-3.71s8.77,1.26,11.72,3.78c2.95,2.52,4.95,6.34,5.99,11.46h4.04c1.04-5.21,3-9.05,5.86-11.52,2.86-2.47,6.73-3.71,11.59-3.71,6.51,0,11.48,2.08,14.91,6.25,3.43,4.17,5.14,10.29,5.14,18.36v32.82h7.16v13.41h-25.79v-43.63c0-4.34-.85-7.55-2.54-9.64-1.69-2.08-4.28-3.13-7.75-3.13s-6.06,1.04-7.75,3.13c-1.69,2.08-2.54,5.3-2.54,9.64v43.63h-18.62v-43.63Z"/>
      <path class="cls-2" d="M239.35,89.86V13.93h-8.2V0h70.71v26.96h-15.89v-13.02h-27.48v23.7h29.95v12.76h-29.95v39.46h-19.14Z"/>
      <path class="cls-2" d="M338.98,91.16c-7.12,0-13.18-1.39-18.17-4.17-4.99-2.78-8.81-6.86-11.46-12.24-2.65-5.38-3.97-11.94-3.97-19.66s1.32-14.39,3.97-19.73c2.65-5.34,6.47-9.4,11.46-12.18,4.99-2.78,11.05-4.17,18.17-4.17s13.15,1.39,18.1,4.17c4.95,2.78,8.75,6.84,11.39,12.18,2.65,5.34,3.97,11.92,3.97,19.73s-1.33,14.28-3.97,19.66c-2.65,5.38-6.45,9.46-11.39,12.24-4.95,2.78-10.98,4.17-18.1,4.17ZM338.98,76.7c4.77,0,8.27-1.32,10.48-3.97,2.21-2.65,3.32-6.84,3.32-12.57v-10.16c0-5.73-1.11-9.92-3.32-12.57-2.21-2.65-5.71-3.97-10.48-3.97s-8.29,1.33-10.55,3.97c-2.26,2.65-3.39,6.84-3.39,12.57v10.16c0,5.73,1.13,9.92,3.39,12.57,2.26,2.65,5.77,3.97,10.55,3.97Z"/>
      <path class="cls-2" d="M386.64,89.86v-56.13h-7.16v-13.41h23.31v13.93h4.3c1.21-5.12,3.21-8.9,5.99-11.33,2.78-2.43,6.55-3.65,11.33-3.65h7.42v14.46h-15.37c-3.82,0-6.64,1.11-8.46,3.32s-2.73,5.66-2.73,10.35v42.45h-18.62Z"/>
      <path class="cls-2" d="M467.38,91.16c-6.95,0-12.87-1.39-17.78-4.17-4.91-2.78-8.66-6.86-11.26-12.24-2.6-5.38-3.91-11.94-3.91-19.66s1.3-14.39,3.91-19.73c2.6-5.34,6.36-9.4,11.26-12.18,4.9-2.78,10.83-4.17,17.78-4.17,8.77,0,15.87,2.17,21.29,6.51,5.42,4.34,8.79,10.68,10.09,19.01h-18.88v-1.82c0-1.3-.41-2.67-1.24-4.1-.83-1.43-2.15-2.65-3.97-3.65-1.82-1-4.25-1.5-7.29-1.5-4.51,0-7.86,1.33-10.03,3.97-2.17,2.65-3.26,6.79-3.26,12.44v10.42c0,5.64,1.08,9.79,3.26,12.44,2.17,2.65,5.51,3.97,10.03,3.97,3.04,0,5.47-.52,7.29-1.56s3.15-2.34,3.97-3.91c.82-1.56,1.24-3.08,1.24-4.56v-2.08h19.01c-1.13,8.68-4.43,15.28-9.9,19.79-5.47,4.52-12.68,6.77-21.62,6.77Z"/>
      <path class="cls-2" d="M540.83,91.16c-7.03,0-13.02-1.39-17.97-4.17-4.95-2.78-8.72-6.86-11.33-12.24-2.6-5.38-3.91-11.94-3.91-19.66s1.3-14.39,3.91-19.73c2.6-5.34,6.38-9.4,11.33-12.18,4.95-2.78,10.94-4.17,17.97-4.17s12.67,1.28,17.45,3.84c4.77,2.56,8.42,6.32,10.94,11.26,2.52,4.95,3.78,11.07,3.78,18.36v6.25h-53.52v-11.72h47.27l-12.37,7.03v-4.43c0-5.82-1.09-10.05-3.26-12.7-2.17-2.65-5.6-3.97-10.29-3.97s-8.12,1.32-10.29,3.97c-2.17,2.65-3.26,6.88-3.26,12.7v10.55c0,5.73,1.08,9.92,3.26,12.57,2.17,2.65,5.6,3.97,10.29,3.97,3.04,0,5.42-.46,7.16-1.37,1.74-.91,3-2,3.78-3.26.78-1.26,1.17-2.36,1.17-3.32v-1.3h19.14c-1.56,7.73-5.01,13.61-10.35,17.65s-12.31,6.06-20.9,6.06Z"/>
    </g>
  </g>
</svg>