<?xml version="1.0" encoding="UTF-8"?> <svg xmlns="http://www.w3.org/2000/svg" id="Layer_1" data-name="Layer 1" viewBox="0 0 421.32 223.2"><defs><style>.cls-1{fill:#e73545;}.cls-2{fill:#1d1d1b;}</style></defs><path class="cls-1" d="M143.23,486.27c-.46-9.89-1-21.78-.92-32.21H142c-2.53,9.39-5.73,19.72-9,29.41l-11.24,33.14H111l-10.15-32.69c-3-9.83-5.74-20.23-7.75-29.86h-.25c-.33,10-.78,22.26-1.37,32.68l-1.7,30.77h-13l5.09-76.58h18.38l10,30.76c2.75,9.05,5.21,18.14,7,26.67h.34c2.06-8.37,4.69-17.72,7.65-26.73l10.62-30.7H154l4.4,76.58H144.71Z" transform="translate(-76.7 -295.57)"></path><path class="cls-1" d="M176.78,493.73c.37,10,8.13,14.4,17.08,14.4a42.13,42.13,0,0,0,15.26-2.56l2.08,9.63a50.09,50.09,0,0,1-19.34,3.51c-18,0-28.47-11.1-28.47-28.05,0-15.26,9.26-29.71,27.05-29.71,18,0,23.83,14.78,23.83,26.9a30,30,0,0,1-.49,5.88ZM201.1,484c.06-5.13-2.16-13.48-11.53-13.48-8.61,0-12.19,7.82-12.82,13.48Z" transform="translate(-76.7 -295.57)"></path><path class="cls-1" d="M260.46,515.85c-2.89,1.37-8.67,2.86-15.61,2.86-17.34,0-28.51-11.13-28.51-28.29,0-16.57,11.31-29.44,30.77-29.44a36.19,36.19,0,0,1,13.5,2.53L258.13,474a23.7,23.7,0,0,0-10.58-2.16c-10.66,0-17,7.8-16.94,17.94,0,11.34,7.46,17.85,17,17.85a27.2,27.2,0,0,0,11-2.19Z" transform="translate(-76.7 -295.57)"></path><path class="cls-1" d="M280,446.72c0,4.18-3,7.54-8,7.54a7.33,7.33,0,0,1-7.66-7.54c0-4.26,3.13-7.56,7.83-7.56A7.37,7.37,0,0,1,280,446.72Zm-14.81,70.79V462.2h14v55.31Z" transform="translate(-76.7 -295.57)"></path><path d="M288.62,478.65c0-6.39-.2-11.66-.45-16.45h11.94l.64,8.12h.33a19,19,0,0,1,17-9.37,15.89,15.89,0,0,1,15.35,10.2h.22a22.64,22.64,0,0,1,6.77-6.95A19.1,19.1,0,0,1,351.69,461c9.14,0,18.46,6.26,18.46,24v32.56H356.51V486.92c0-9.22-3.19-14.63-9.87-14.63-4.78,0-8.29,3.37-9.72,7.36a15.64,15.64,0,0,0-.71,4.67v33.19H322.57v-32c0-7.79-3.12-13.24-9.55-13.24-5.24,0-8.74,4.11-10.06,7.9a14.2,14.2,0,0,0-.7,4.63v32.69H288.62Z" transform="translate(-76.7 -295.57)"></path><path d="M410.41,517.51l-1-6.16h-.34c-3.35,4.37-9.14,7.41-16.3,7.41-11.22,0-17.43-8-17.43-16.45,0-14,12.43-21,32.8-20.94v-.92c0-3.63-1.43-9.68-11.23-9.64a29.51,29.51,0,0,0-14.87,4.13l-2.77-9.08c4.18-2.54,11.34-4.91,20.05-4.91,17.74,0,22.81,11.19,22.81,23.32v19.92a84.06,84.06,0,0,0,.85,13.32Zm-1.85-27.09c-9.87-.13-19.31,1.95-19.31,10.37,0,5.42,3.55,8,8,8a11.39,11.39,0,0,0,10.95-7.65,10.58,10.58,0,0,0,.39-3Z" transform="translate(-76.7 -295.57)"></path><path d="M431.32,480c0-7.41-.15-12.85-.45-17.78H443l.52,10.51h.39C446.62,464.92,453.06,461,459,461a13.28,13.28,0,0,1,3.28.3v13.18a18.33,18.33,0,0,0-4.1-.4c-6.66,0-11.28,4.24-12.53,10.58a22.82,22.82,0,0,0-.36,4.22v28.68h-14Z" transform="translate(-76.7 -295.57)"></path><path d="M484.71,446.36V462.2H498v10.42H484.71V497c0,6.77,1.81,10.21,7.16,10.21a21,21,0,0,0,5.43-.61l.28,10.64a31.28,31.28,0,0,1-10.18,1.44c-5.14,0-9.42-1.75-12-4.56-3-3.18-4.37-8.27-4.37-15.52v-26h-7.89V462.2H471V449.67Z" transform="translate(-76.7 -295.57)"></path><path class="cls-1" d="M279.22,394.78l23.32-77.4c4.55-14.85,12-21.81,21.71-21.81h44.16c-6,0-11.82,7.33-16.37,22.18l-23.33,77.4C324.16,410,316.73,417,307,417H262.85C268.85,417,274.67,409.63,279.22,394.78Z" transform="translate(-76.7 -295.57)"></path><path class="cls-2" d="M240.67,317.75C245.22,302.9,251,295.57,257,295.57s11.77,7.56,16.22,22.5l14.52,48.75-8.56,28C274.67,409.63,268.85,417,262.85,417s-11.77-7.57-16.22-22.51l-14.52-48.75Z" transform="translate(-76.7 -295.57)"></path><path class="cls-2" d="M363.37,412.51l-19.89-66.8,8.56-28c4.55-14.85,10.36-22.18,16.37-22.18s11.77,7.56,16.22,22.5l28.13,94.44a3.28,3.28,0,0,1-3.32,4.46H369.35A6.63,6.63,0,0,1,363.37,412.51Z" transform="translate(-76.7 -295.57)"></path><path class="cls-1" d="M177.18,371.39" transform="translate(-76.7 -295.57)"></path><path class="cls-1" d="M212.88,295.57c-9.72,0-17.16,7-21.71,21.81l-26.94,90.26h9.14l27-90.52,0,0a6.9,6.9,0,0,1,3.33-1.88l24.79.54a2.59,2.59,0,0,1,2.42,3.32l-27,88.57h8.87l27.91-89.89C245.22,302.9,251,295.57,257,295.57Zm14,13.14-15.48-.06a1.48,1.48,0,0,1-1.36-1.44,1.26,1.26,0,0,1,1.17-1.43l15.49.06a1.48,1.48,0,0,1,1.35,1.44A1.26,1.26,0,0,1,226.86,308.71Z" transform="translate(-76.7 -295.57)"></path><path class="cls-1" d="M163.8,410.18c2,7,5.75,6.52,5.75,6.52h36c6.26-1.21,6.46-6.52,6.46-6.52ZM187,415.34a2,2,0,1,1,2-2A2,2,0,0,1,187,415.34Z" transform="translate(-76.7 -295.57)"></path></svg> 